<svg width="215" height="42" viewBox="0 0 215 42" fill="none" xmlns="http://www.w3.org/2000/svg">
  <!-- Crest Shield -->
  <path d="M 6,6 H 36 V 22 C 36 31 21 38 21 38 C 21 38 6 31 6 22 V 6 Z" fill="#FC5A11" />
  <path d="M 9,9 H 33 V 21 C 33 28 21 34 21 34 C 21 34 9 28 9 21 V 9 Z" fill="#1d1d1d" opacity="0.15" />
  
  <!-- Graduation Cap -->
  <path d="M 21,11 L 27,14 L 21,17 L 15,14 Z" fill="#ffffff" />
  <path d="M 18,15 v 2.2 c 0,1.5 6,1.5 6,0 v -2.2" fill="#ffffff" />
  <path d="M 24.5,14.8 L 26,17.5" stroke="#ffffff" stroke-width="0.8" stroke-linecap="round" />
  
  <!-- Open Book -->
  <path d="M 15,25 c 2,-1.2 4,-1.2 6,0 v -5 c -2,-1.2 -4,-1.2 -6,0 z" fill="#ffffff" />
  <path d="M 21,25 c 2,-1.2 4,-1.2 6,0 v -5 c -2,-1.2 -4,-1.2 -6,0 z" fill="#ffffff" />
  
  <!-- Text: OXFORD -->
  <text x="45" y="22" font-family="'Outfit', 'Inter', 'Barlow', 'Segoe UI', sans-serif" font-size="21" font-weight="800" fill="#1d1d1d" letter-spacing="1">OXFORD</text>
  
  <!-- Text: SCHOOL -->
  <text x="45" y="35" font-family="'Outfit', 'Inter', 'Barlow', 'Segoe UI', sans-serif" font-size="9" font-weight="600" fill="#FC5A11" letter-spacing="5.5">SCHOOL</text>
</svg>
